<?xml version="1.0" encoding="UTF-8"?>
<svg data-bbox="18.2 7.1 1055.2 135.9" viewBox="0 0 1091.6 150.1" xmlns="http://www.w3.org/2000/svg" data-type="color">
    <g>
        <g style="isolation:isolate">
            <path d="M679.2 10.9h11.5v84.3h-11.5z" fill="#ffffff" data-color="1"/>
            <path d="M768.9 17.1c5.8 5.6 9.1 12 9.7 19.2h-11.1c-1.2-5.4-3.7-9.7-7.4-12.9q-5.55-4.8-15.6-4.8c-10.05 0-14.7 2.9-19.8 8.8-5 5.8-7.5 14.8-7.5 26.9s2.3 17.9 6.8 24 11.3 9.2 20.3 9.2 14.6-3.2 18.9-9.7c2.3-3.4 4-7.9 5.1-13.4h11.1c-1 8.9-4.2 16.3-9.8 22.3-6.6 7.2-15.6 10.9-26.8 10.9s-17.8-3-24.4-8.9c-8.7-7.9-13-20-13-36.4s3.3-22.7 9.8-30.6c7-8.7 16.7-13 29.1-13s18.7 2.8 24.6 8.4" fill="#ffffff" data-color="1"/>
            <path d="M863.7 23c5.6 7.5 8.4 17 8.4 28.6s-3.2 23.1-9.6 31.4q-11.25 14.7-32.1 14.7c-20.85 0-23.2-4.3-30.6-12.9-6.6-8.3-9.9-18.7-9.9-31.3s2.8-21.2 8.5-29.3c7.3-10.4 18-15.6 32.3-15.6s25.9 4.8 33.1 14.4zm-10.1 53.7c4.5-7.2 6.7-15.5 6.7-24.9s-2.6-17.9-7.8-24-12.3-9.1-21.3-9.1-15.8 3-21.4 9c-5.5 6-8.3 14.8-8.3 26.5s2.4 17.2 7.1 23.6 12.4 9.6 23 9.6 17.3-3.6 21.8-10.8h.2Z" fill="#ffffff" data-color="1"/>
            <path d="M885.7 10.9h13.5L941.3 79V10.9h10.9v84.3h-12.8l-42.7-68.1v68.1h-10.9V10.9Z" fill="#ffffff" data-color="1"/>
            <path d="M973.2 10.9h11.5v84.3h-11.5z" fill="#ffffff" data-color="1"/>
            <path d="M1062.9 17.1c5.8 5.6 9.1 12 9.7 19.2h-11.1c-1.2-5.4-3.7-9.7-7.4-12.9q-5.55-4.8-15.6-4.8c-10.05 0-14.7 2.9-19.8 8.8-5 5.8-7.5 14.8-7.5 26.9s2.3 17.9 6.8 24 11.3 9.2 20.3 9.2 14.6-3.2 18.9-9.7c2.3-3.4 4-7.9 5.1-13.4h11.1c-1 8.9-4.2 16.3-9.8 22.3-6.6 7.2-15.6 10.9-26.8 10.9s-17.8-3-24.4-8.9c-8.7-7.9-13-20-13-36.4s3.3-22.7 9.8-30.6c7-8.7 16.7-13 29.1-13s18.7 2.8 24.6 8.4" fill="#ffffff" data-color="1"/>
        </g>
        <path d="m58.2 62.1.4-34.8c0-.1-9.9 34.8-9.9 34.8h-7.8l-10-35.2.4 35.2H20.4V15.7h15.2l9.2 30.6 9.1-30.6h15.3v46.4z" fill="#ffffff" data-color="1"/>
        <path d="m107.5 62.1-2.3-6.7H89.1l-2.4 6.7H74l18.6-46.4h9.4l18.4 46.4zM97.3 30.2h-.2L92.3 46h9.7l-4.8-15.8z" fill="#ffffff" data-color="1"/>
        <path d="m147.3 62.1-10.7-15h-.1v15h-11.4V15.7h15.2c4.8 0 8.5.6 11 1.7 5 2.3 8.5 7.7 8.5 14.3s-4.4 13.4-11.5 14.6l12.6 15.8zM140.8 39c4.7 0 7.6-2.2 7.6-6.7s-3-6.3-7.5-6.3h-4.5v12.9h4.4Z" fill="#ffffff" data-color="1"/>
        <path d="M192 62.1 179.3 42h-.1v20.1h-11.9V15.7h11.9v20.9h.1l13.1-20.9h12.4l-15.4 23.2 16.4 23.3h-13.9Z" fill="#ffffff" data-color="1"/>
        <path d="M210.4 62.1V15.7h25.8v10.4h-14.4v7.2h14v10.4h-14v8h14.4v10.4z" fill="#ffffff" data-color="1"/>
        <path d="M249.1 62.1v-36h-9.2V15.7H270v10.4h-9.1v36H249z" fill="#ffffff" data-color="1"/>
        <path d="M293.1 29.2c-.5-3.3-1.9-4.5-4.2-4.5s-4.1 1.6-4.1 3.6 2.5 4 7.6 6.2c10.2 4.4 12.8 8.1 12.8 14.2 0 9-6.1 14.2-16.2 14.2s-16.8-5.3-16.8-15.2v-1H284c0 3.8 1.9 6.3 4.9 6.3s4.5-1.9 4.5-4.5c0-3.7-5.1-5.3-9.4-7-7.6-3.1-11-7.1-11-13.1s7.7-13.7 16.2-13.7 5.8.7 8.2 1.9c5 2.6 7.3 6.3 7.4 12.5h-11.7Z" fill="#ffffff" data-color="1"/>
        <path d="M91.1 138.3V82.8H77V66.7h46.4v16.1h-14v55.5z" fill="#ffffff" data-color="1"/>
        <path d="m189.4 138.3.6-53.6-.2-.2-15.3 53.8h-12.1L146.9 84l.6 54.3h-16.8V66.7h23.5l14.2 47.1h.2l14-47.1h23.6v71.6z" fill="#ffffff" data-color="1"/>
        <path d="M271 138.3 260.3 92h-.2l-10.7 46.3h-16.5l-18.5-71.6H233l9.6 46.5h.2l10.5-46.5h14l10.3 46.7h.2l9.8-46.7h18.5l-19 71.6z" fill="#ffffff" data-color="1"/>
        <path d="M18.2 82.1c0-9.1 6.6-16 15.6-16s15.6 6.7 15.6 15.1-6.8 15.5-15.3 15.5S18.2 90.8 18.2 82Zm23.7-.7c0-4.6-3.3-8.7-8.1-8.7s-8 4-8 8.6 3.3 8.8 8.1 8.8 7.9-4 7.9-8.7Z" fill="#ffffff" data-color="1"/>
        <path d="M53.5 96.2V66.7h16.1v6.6h-8.9v5h8.6v6.6h-8.6v11.3z" fill="#ffffff" data-color="1"/>
        <path d="M679.2 11.3h11.5v84.3h-11.5z" fill="#ffffff" data-color="1"/>
        <path d="M768.9 17.5c5.8 5.6 9.1 12 9.7 19.2h-11.1c-1.2-5.4-3.7-9.7-7.4-12.9q-5.55-4.8-15.6-4.8c-10.05 0-14.7 2.9-19.8 8.8-5 5.8-7.5 14.8-7.5 26.9s2.3 17.9 6.8 24 11.3 9.2 20.3 9.2 14.6-3.2 18.9-9.7c2.3-3.4 4-7.9 5.1-13.4h11.1c-1 8.9-4.2 16.3-9.8 22.3C763 94.3 754 98 742.8 98s-17.8-3-24.4-8.9c-8.7-7.9-13-20-13-36.4s3.3-22.7 9.8-30.6c7-8.7 16.7-13 29.1-13s18.7 2.8 24.6 8.4" fill="#ffffff" data-color="1"/>
        <path d="M863.7 23.4c5.6 7.5 8.4 17 8.4 28.6s-3.2 23.1-9.6 31.4q-11.25 14.7-32.1 14.7c-20.85 0-23.2-4.3-30.6-12.9-6.6-8.3-9.9-18.7-9.9-31.3s2.8-21.2 8.5-29.3c7.3-10.4 18-15.6 32.3-15.6s25.9 4.8 33.1 14.4zm-10.1 53.7c4.5-7.2 6.7-15.5 6.7-24.9s-2.6-17.9-7.8-24-12.3-9.1-21.3-9.1-15.8 3-21.4 9c-5.5 6-8.3 14.8-8.3 26.5s2.4 17.2 7.1 23.6 12.4 9.6 23 9.6 17.3-3.6 21.8-10.8h.2Z" fill="#ffffff" data-color="1"/>
        <path d="M885.7 11.3h13.5l42.1 68.1V11.3h10.9v84.3h-12.8l-42.7-68.1v68.1h-10.9V11.3Z" fill="#ffffff" data-color="1"/>
        <path d="M973.2 11.3h11.5v84.3h-11.5z" fill="#ffffff" data-color="1"/>
        <path d="M1062.9 17.5c5.8 5.6 9.1 12 9.7 19.2h-11.1c-1.2-5.4-3.7-9.7-7.4-12.9q-5.55-4.8-15.6-4.8c-10.05 0-14.7 2.9-19.8 8.8-5 5.8-7.5 14.8-7.5 26.9s2.3 17.9 6.8 24 11.3 9.2 20.3 9.2 14.6-3.2 18.9-9.7c2.3-3.4 4-7.9 5.1-13.4h11.1c-1 8.9-4.2 16.3-9.8 22.3-6.6 7.2-15.6 10.9-26.8 10.9s-17.8-3-24.4-8.9c-8.7-7.9-13-20-13-36.4s3.3-22.7 9.8-30.6c7-8.7 16.7-13 29.1-13s18.7 2.8 24.6 8.4" fill="#ffffff" data-color="1"/>
        <path d="m58.2 62.5.4-34.8c0-.1-9.9 34.8-9.9 34.8h-7.8l-10-35.2.4 35.2H20.4V16.1h15.2l9.2 30.6 9.1-30.6h15.3v46.4z" fill="#ffffff" data-color="1"/>
        <path d="m107.5 62.5-2.3-6.7H89.1l-2.4 6.7H74l18.6-46.4h9.4l18.4 46.4zM97.3 30.6h-.2l-4.8 15.8h9.7l-4.8-15.8z" fill="#ffffff" data-color="1"/>
        <path d="m147.3 62.5-10.7-15h-.1v15h-11.4V16.1h15.2c4.8 0 8.5.6 11 1.7 5 2.3 8.5 7.7 8.5 14.3s-4.4 13.4-11.5 14.6l12.6 15.8zm-6.5-23.1c4.7 0 7.6-2.2 7.6-6.7s-3-6.3-7.5-6.3h-4.5v12.9h4.4Z" fill="#ffffff" data-color="1"/>
        <path d="m192 62.5-12.7-20.1h-.1v20.1h-11.9V16.1h11.9V37h.1l13.1-20.9h12.4l-15.4 23.2 16.4 23.3h-13.9Z" fill="#ffffff" data-color="1"/>
        <path d="M210.4 62.5V16.1h25.8v10.4h-14.4v7.2h14v10.4h-14v8h14.4v10.4z" fill="#ffffff" data-color="1"/>
        <path d="M249.1 62.5v-36h-9.2V16.1H270v10.4h-9.1v36H249z" fill="#ffffff" data-color="1"/>
        <path d="M293.1 29.6c-.5-3.3-1.9-4.5-4.2-4.5s-4.1 1.6-4.1 3.6 2.5 4 7.6 6.2c10.2 4.4 12.8 8.1 12.8 14.2 0 9-6.1 14.2-16.2 14.2s-16.8-5.3-16.8-15.2v-1H284c0 3.8 1.9 6.3 4.9 6.3s4.5-1.9 4.5-4.5c0-3.7-5.1-5.3-9.4-7-7.6-3.1-11-7.1-11-13.1s7.7-13.7 16.2-13.7 5.8.7 8.2 1.9c5 2.6 7.3 6.3 7.4 12.5h-11.7Z" fill="#ffffff" data-color="1"/>
        <path d="M91.1 138.7V83.2H77V67.1h46.4v16.1h-14v55.5z" fill="#ffffff" data-color="1"/>
        <path d="m189.4 138.7.6-53.6-.2-.2-15.3 53.8h-12.1l-15.5-54.3.6 54.3h-16.8V67.1h23.5l14.2 47.1h.2l14-47.1h23.6v71.6z" fill="#ffffff" data-color="1"/>
        <path d="m271 138.7-10.7-46.3h-.2l-10.7 46.3h-16.5l-18.5-71.6H233l9.6 46.5h.2l10.5-46.5h14l10.3 46.7h.2l9.8-46.7h18.5l-19 71.6z" fill="#ffffff" data-color="1"/>
        <path d="M18.2 82.5c0-9.1 6.6-16 15.6-16s15.6 6.7 15.6 15.1-6.8 15.5-15.3 15.5-15.9-5.9-15.9-14.7Zm23.7-.7c0-4.6-3.3-8.7-8.1-8.7s-8 4-8 8.6 3.3 8.8 8.1 8.8 7.9-4 7.9-8.7Z" fill="#ffffff" data-color="1"/>
        <path d="M53.5 96.6V67.1h16.1v6.6h-8.9v5h8.6v6.6h-8.6v11.3z" fill="#ffffff" data-color="1"/>
        <g style="isolation:isolate">
            <path d="M328.2 109.1c-1.3 1.9-.6 3.4 1.9 3.4H390c1.9 0 2.8.9 2.8 2.8v22.5c0 1.9-.9 2.8-2.8 2.8h-68.3c-1.9 0-2.8-.9-2.8-2.8s.9-2.8 2.8-2.8h62.7c1.9 0 2.8-.9 2.8-2.8V121c0-1.9-.9-2.8-2.8-2.8h-62.7c-1.9 0-2.8-.9-2.8-2.8v-.9c0-1.3.4-2.2 1.1-3.4l42.3-57.5c2.1-2.8 3.2-4.5 3.2-6.9 0-5.4-4.3-9.7-9.7-9.7s-9.5 4.3-9.5 9.7-.9 2.8-2.8 2.8h-21.7c-1.9 0-2.8-.6-2.8-1.5v-1.3c0-20.4 16.5-37.1 36.9-37.1S393 26.3 393 46.7s-2.1 14-6.6 20.8c-2.2 3.2-13.9 20.2-25.3 37.6-.9 1.3-2.1 1.9-3.6 1.9h-.6c-2.2 0-3.2-1.5-1.7-3.6 12-17.8 24.1-35.6 26.4-38.9 3.9-6 5.6-11.4 5.6-17.8 0-17.4-14-31.5-31.5-31.5s-28.1 11-30.7 25.6c-.4 1.9.7 3 2.6 3h10.9c1.7 0 2.4-.7 3-2.4 2.2-5.8 7.9-10.1 14.2-10.1s15.4 6.9 15.4 15.4S369 54 366.8 57l-38.6 52.2Z" fill="#ffffff" data-color="1"/>
            <path d="M486.4 71.5c0 2.2-1.1 3.2-2.8 2.4l-.6-.2c-1.5-.7-2.2-1.7-2.2-3.4V49.1c0-9.7-3.7-18.9-10.7-25.6-6.9-6.9-16.1-10.9-25.8-10.9s-18.9 3.9-25.8 10.9c-6.9 6.7-10.7 15.9-10.7 25.6v51.5c0 9.9 3.7 19.1 10.7 25.8 6.9 6.9 16.1 10.7 25.8 10.7s18.9-3.7 25.8-10.7c6.9-6.7 10.7-15.9 10.7-25.8V87.3c0-1.7-.7-2.8-2.2-3.4L462.1 77c-1.5-.6-2.2-1.7-2.2-3.4V49.1h-.2c-.4-8.1-7.1-14.4-15.4-14.4s-15 6.4-15.4 14.4v51.5c.4 8.2 7.1 14.6 15.4 14.6s14-5.6 15.2-12.9c.2-1.3.2-1.7.4-1.7v-15c0-2.1 1.1-3 2.8-2.4l.7.4c1.5.6 2.1 1.7 2.1 3.2v13.9c-.6 11.2-9.7 20.2-21.2 20.2s-20.6-9-21-20.2V49.2c.4-11 9.7-20 21-20s20.6 9 21.2 20V70c0 1.7.7 2.8 2.2 3.4l13.9 5.8 2.6 1.1c1.5.6 2.2 1.7 2.2 3.4v17c0 23.4-18.9 42.3-42.1 42.3s-42.1-18.9-42.1-42.3V49.2c0-23.2 18.9-42.1 42.1-42.1s42.1 18.9 42.1 42.1z" fill="#ffffff" data-color="1"/>
            <path d="M505.2 109.1c-1.3 1.9-.6 3.4 1.9 3.4H567c1.9 0 2.8.9 2.8 2.8v22.5c0 1.9-.9 2.8-2.8 2.8h-68.3c-1.9 0-2.8-.9-2.8-2.8s.9-2.8 2.8-2.8h62.7c1.9 0 2.8-.9 2.8-2.8V121c0-1.9-.9-2.8-2.8-2.8h-62.7c-1.9 0-2.8-.9-2.8-2.8v-.9c0-1.3.4-2.2 1.1-3.4l42.3-57.5c2.1-2.8 3.2-4.5 3.2-6.9 0-5.4-4.3-9.7-9.7-9.7s-9.5 4.3-9.5 9.7-.9 2.8-2.8 2.8h-21.7c-1.9 0-2.8-.6-2.8-1.5v-1.3c0-20.4 16.5-37.1 36.9-37.1S570 26.3 570 46.7s-2.1 14-6.6 20.8c-2.2 3.2-13.9 20.2-25.3 37.6-.9 1.3-2.1 1.9-3.6 1.9h-.6c-2.2 0-3.2-1.5-1.7-3.6 12-17.8 24.2-35.6 26.4-38.9 3.9-6 5.6-11.4 5.6-17.8 0-17.4-14-31.5-31.5-31.5s-28.1 11-30.7 25.6c-.4 1.9.7 3 2.6 3h10.9c1.7 0 2.4-.7 3-2.4 2.2-5.8 7.9-10.1 14.2-10.1s15.4 6.9 15.4 15.4S546 54 543.8 57l-38.6 52.2Z" fill="#ffffff" data-color="1"/>
            <path d="M628.5 60.6c.9-1.5 2.1-2.1 3.6-1.5 15.2 6.2 26.6 21.3 26.6 39.3s-17.6 40.8-39.3 41.9c-1.3 0-2.2.2-2.8.2-1.9 0-2.8-1.1-2.8-3v-15.7c0-1.7-.9-2.6-2.4-3.2-9.2-2.2-15.7-10.5-15.7-20.2s.7-7.1 2.6-10.1l.9-1.7 42.1-68c1.1-1.9.4-3.4-1.9-3.4h-12.2c-1.5 0-2.6.6-3.4 1.9l-27.3 44.2-10.9 17.8c-3.6 5.6-5.6 12.2-5.6 19.3 0 16.3 10.9 30.1 25.6 34.8 1.7.6 2.4 1.5 2.4 3.2v.2c0 1.9-1.1 3-3.2 2.4-17.2-5.1-30.5-20.8-30.5-40.6s2.4-16.5 7.1-23.4l39.3-63.5c.7-1.3 1.9-1.9 3.4-1.9h25.3c2.2 0 3 1.5 1.9 3.4l-48.5 78.1c-1.1 2.2-1.7 4.7-1.7 7.3 0 7.5 5.4 13.9 12.5 15.2.9.2 1.9.2 2.6.2 1.9.2 3 .9 3 2.8v15.2c0 1.9 1.1 3 3 2.6 17.4-2.6 30.7-17.8 30.7-35.9s-7.5-25.5-18.5-31.6c-1.5-.9-3-.6-3.9.9l-5.2 8.4c-.9 1.7-.4 3 1.1 3.9 6.7 3.6 11 10.5 11 18.3s-3.6 13.7-9.2 17.4c-1.9 1.3-3.4.6-3.4-1.3v-1.1c0-1.5.6-2.4 1.7-3.4 3.4-2.8 5.2-6.9 5.2-11.6 0-8.4-6.9-15.5-15.4-15.5-1.1.2-1.1-1.5.2-3.4l11.8-18.9z" fill="#ffffff" data-color="1"/>
        </g>
        <g style="isolation:isolate">
            <path d="M696 109.7c2.9 1.5 4.6 4.2 5.3 8h-3.9c-.5-2.1-1.4-3.7-2.9-4.7s-3.3-1.5-5.6-1.5-4.9 1-6.7 3-2.7 5.1-2.7 9.1.7 6.3 2.2 8.5 3.9 3.3 7.3 3.3 4.7-.8 6.4-2.3 2.6-4 2.6-7.4h-9.2v-3.3h12.8v15.7H699l-1-3.8c-1.3 1.5-2.5 2.5-3.5 3.1-1.7 1-3.9 1.5-6.5 1.5s-6.3-1.1-8.8-3.4c-2.7-2.8-4-6.7-4-11.6s1.3-8.8 3.9-11.7c2.5-2.8 5.7-4.1 9.7-4.1s5.1.5 7 1.6Z" fill="#ffffff" data-color="1"/>
            <path d="M732.4 113c1.9 2.6 2.9 5.9 2.9 9.9s-1.1 8-3.3 10.9q-3.9 5.1-11.1 5.1c-7.2 0-8-1.5-10.6-4.5-2.3-2.9-3.4-6.5-3.4-10.9s1-7.3 2.9-10.2c2.5-3.6 6.3-5.4 11.2-5.4s9 1.7 11.5 5Zm-3.5 18.7c1.6-2.5 2.3-5.4 2.3-8.6s-.9-6.2-2.7-8.3-4.3-3.2-7.4-3.2-5.5 1-7.4 3.1-2.9 5.1-2.9 9.2.8 6 2.5 8.2c1.6 2.2 4.3 3.3 8 3.3s6-1.3 7.6-3.8Z" fill="#ffffff" data-color="1"/>
            <path d="M740 108.8h4v25.8h14.7v3.5h-18.6v-29.3Z" fill="#ffffff" data-color="1"/>
            <path d="M763.1 108.8h20.3v3.6h-16.3v8.9h14.4v3.5h-14.4v13.3h-4z" fill="#ffffff" data-color="1"/>
            <path d="M819.7 111c2 2 3.1 4.2 3.4 6.7h-3.9c-.4-1.9-1.3-3.4-2.6-4.5s-3.1-1.7-5.4-1.7-5.1 1-6.9 3-2.6 5.1-2.6 9.3.8 6.2 2.4 8.3 3.9 3.2 7 3.2 5.1-1.1 6.6-3.4c.8-1.2 1.4-2.7 1.8-4.7h3.9c-.3 3.1-1.5 5.7-3.4 7.8-2.3 2.5-5.4 3.8-9.3 3.8s-6.2-1-8.5-3.1q-4.5-4.05-4.5-12.6c0-8.55 1.1-7.9 3.4-10.6 2.4-3 5.8-4.5 10.1-4.5s6.5 1 8.5 2.9Z" fill="#ffffff" data-color="1"/>
            <path d="M852.6 113c1.9 2.6 2.9 5.9 2.9 9.9s-1.1 8-3.3 10.9q-3.9 5.1-11.1 5.1c-7.2 0-8-1.5-10.6-4.5-2.3-2.9-3.4-6.5-3.4-10.9s1-7.3 2.9-10.2c2.5-3.6 6.3-5.4 11.2-5.4s9 1.7 11.5 5Zm-3.5 18.7c1.6-2.5 2.3-5.4 2.3-8.6s-.9-6.2-2.7-8.3-4.3-3.2-7.4-3.2-5.5 1-7.4 3.1-2.9 5.1-2.9 9.2.8 6 2.5 8.2 4.3 3.3 8 3.3 6-1.3 7.6-3.8Z" fill="#ffffff" data-color="1"/>
            <path d="M864.5 108.8v18.1c0 2.1.4 3.9 1.2 5.3 1.2 2.1 3.2 3.2 6 3.2s5.7-1.1 6.9-3.4c.7-1.2 1-2.9 1-5v-18.1h4v16.4c0 3.6-.5 6.4-1.5 8.3-1.8 3.5-5.2 5.3-10.1 5.3s-8.3-1.8-10.1-5.3c-1-1.9-1.5-4.7-1.5-8.3v-16.4h4Z" fill="#ffffff" data-color="1"/>
            <path d="M890.1 108.8h13.3c2.2 0 4 .3 5.4 1 2.7 1.2 4 3.6 4 6.9s-.4 3.2-1.1 4.3q-1.05 1.65-3 2.7c1.1.5 2 1.1 2.6 1.8.6.8.9 2 1 3.7v3.9c.2 1.1.3 1.9.4 2.5.2.9.7 1.5 1.3 1.8v.7h-4.9c-.1-.3-.2-.6-.3-1 0-.4-.1-1.2-.2-2.3l-.2-4.9c0-1.9-.8-3.2-2.1-3.8-.7-.4-1.9-.5-3.5-.5H894v12.6h-4v-29.3Zm12.9 13.4c1.8 0 3.2-.4 4.3-1.1s1.6-2.1 1.6-4-.7-3.5-2.2-4.3c-.8-.4-1.8-.6-3.2-.6h-9.4v10z" fill="#ffffff" data-color="1"/>
            <path d="M921.7 128.7c0 1.7.5 3 1.1 4 1.3 1.9 3.5 2.9 6.7 2.9s2.7-.2 3.9-.6c2.3-.8 3.4-2.3 3.4-4.4s-.5-2.7-1.4-3.4c-1-.7-2.5-1.2-4.6-1.7l-3.8-.9c-2.5-.6-4.3-1.2-5.3-1.9-1.8-1.2-2.7-3-2.7-5.5s.9-4.8 2.7-6.5 4.3-2.5 7.5-2.5 5.5.7 7.6 2.2 3.1 3.8 3.1 7.1h-3.7q-.3-2.4-1.2-3.6c-1.2-1.5-3.1-2.3-5.9-2.3s-3.9.5-4.8 1.5c-1 1-1.5 2.1-1.5 3.4s.6 2.5 1.7 3.1c.8.4 2.5 1 5.2 1.6l4 .9c1.9.5 3.4 1.1 4.4 1.9q2.7 2.1 2.7 6c0 3.9-1.1 5.6-3.4 7s-5 2.1-8 2.1-6.3-.9-8.3-2.8q-3-2.7-3-7.5h3.7Z" fill="#ffffff" data-color="1"/>
            <path d="M946.7 108.8h21.2v3.6h-17.4v8.9h16.1v3.4h-16.1v9.9h17.7v3.5h-21.5z" fill="#ffffff" data-color="1"/>
            <path d="M976.1 128.7c0 1.7.5 3 1.1 4 1.3 1.9 3.5 2.9 6.7 2.9s2.7-.2 3.9-.6c2.3-.8 3.4-2.3 3.4-4.4s-.5-2.7-1.4-3.4c-1-.7-2.5-1.2-4.6-1.7l-3.8-.9c-2.5-.6-4.3-1.2-5.3-1.9-1.8-1.2-2.7-3-2.7-5.5s.9-4.8 2.7-6.5 4.3-2.5 7.5-2.5 5.5.7 7.6 2.2 3.1 3.8 3.1 7.1h-3.7q-.3-2.4-1.2-3.6c-1.2-1.5-3.1-2.3-5.9-2.3s-3.9.5-4.8 1.5c-1 1-1.5 2.1-1.5 3.4s.6 2.5 1.7 3.1c.8.4 2.5 1 5.2 1.6l4 .9c1.9.5 3.4 1.1 4.4 1.9q2.7 2.1 2.7 6c0 3.9-1.1 5.6-3.4 7s-5 2.1-8 2.1-6.3-.9-8.3-2.8q-3-2.7-3-7.5h3.7Z" fill="#ffffff" data-color="1"/>
        </g>
    </g>
</svg>
