<?xml version="1.0" encoding="UTF-8"?>
<svg data-bbox="27.7 7.7 1036.1 134.6" viewBox="0 0 1091.6 150.1" xmlns="http://www.w3.org/2000/svg" data-type="color">
    <g>
        <path d="M470 71.5c0 2.2-1.1 3.2-2.8 2.4l-.6-.2c-1.5-.7-2.2-1.7-2.2-3.3v-21c0-9.6-3.7-18.7-10.6-25.4-6.9-6.9-15.9-10.8-25.6-10.8s-18.7 3.9-25.6 10.8c-6.9 6.7-10.6 15.8-10.6 25.4v51c0 9.8 3.7 18.9 10.6 25.6 6.9 6.9 15.9 10.6 25.6 10.6s18.7-3.7 25.6-10.6c6.9-6.7 10.6-15.8 10.6-25.6V87.2c0-1.7-.7-2.8-2.2-3.3L445.9 77c-1.5-.6-2.2-1.7-2.2-3.3V49.4h-.2c-.4-8-7-14.3-15.2-14.3s-14.8 6.3-15.2 14.3v51c.4 8.2 7 14.5 15.2 14.5 3.1 0 6.2-.8 8.8-2.6s4.2-4 5.3-6.7c1.5-3.8 1.2-7.9 1.3-11.9s0-5.4 0-8.1c0-2 1.1-3 2.8-2.4l.7.4c1.5.6 2 1.7 2 3.2v13.7c-.6 11.1-9.6 20-21 20s-20.4-8.9-20.8-20v-51c.4-10.9 9.6-19.8 20.8-19.8s20.4 8.9 21 19.8v20.6c0 1.7.7 2.8 2.2 3.3l13.7 5.7 2.6 1.1c1.5.6 2.2 1.7 2.2 3.3v16.9c0 23.2-18.7 41.9-41.7 41.9s-41.7-18.7-41.7-41.9v-51c0-23 18.7-41.7 41.7-41.7s41.7 18.7 41.7 41.7v22.1z" fill="#ffffff" data-color="1"/>
        <path d="M488.5 108.7c-1.3 1.9-.6 3.3 1.9 3.3h59.3c1.9 0 2.8.9 2.8 2.8V137c0 1.9-.9 2.8-2.8 2.8H482c-1.9 0-2.8-.9-2.8-2.8s.9-2.8 2.8-2.8h62.1c1.9 0 2.8-.9 2.8-2.8v-11.1c0-1.9-.9-2.8-2.8-2.8H482c-1.9 0-2.8-.9-2.8-2.8v-.9c0-1.3.4-2.2 1.1-3.3l41.9-56.9c2-2.8 3.2-4.4 3.2-6.9 0-5.4-4.3-9.6-9.6-9.6s-9.7 4.3-9.5 9.6-.9 2.8-2.8 2.8H482c-1.9 0-2.8-.6-2.8-1.5v-1.3c0-20.2 16.3-36.7 36.5-36.7 11.5 0 22.6 5.6 29.4 14.8 4 5.3 6.3 11.7 6.9 18.3.5 5.2.4 10.5-1.1 15.5s-5.6 9.4-8.7 14c-3.6 5.3-7.2 10.7-10.8 16.1-3.5 5.3-7 10.5-10.5 15.9-.9 1.3-2 1.9-3.5 1.9h-.6c-2.2 0-3.2-1.5-1.7-3.5C527 85.4 539 67.8 541.2 64.4c3.9-5.9 5.6-11.3 5.6-17.6 0-17.2-13.9-31.1-31.1-31.1s-27.8 10.9-30.4 25.4c-.4 1.9.7 3 2.6 3h10.8c1.7 0 2.4-.7 3-2.4 2.2-5.7 7.8-10 14.1-10 4.1 0 8.2 2.4 11.1 5.2s2.9 3.4 3.6 5.5.5 5 0 7.3c-.9 4-3.4 6.8-5.7 10l-3.9 5.3-11.6 15.7L497 97.3l-7.8 10.6c-.2.3-.5.7-.7 1Z" fill="#ffffff" data-color="1"/>
        <path d="M313.3 108.7c-1.3 1.9-.6 3.3 1.9 3.3h59.3c1.9 0 2.8.9 2.8 2.8V137c0 1.9-.9 2.8-2.8 2.8h-67.7c-1.9 0-2.8-.9-2.8-2.8s.9-2.8 2.8-2.8h62.1c1.9 0 2.8-.9 2.8-2.8v-11.1c0-1.9-.9-2.8-2.8-2.8h-62.1c-1.9 0-2.8-.9-2.8-2.8v-.9c0-1.3.4-2.2 1.1-3.3L347 53.6c2-2.8 3.2-4.4 3.2-6.9 0-5.4-4.3-9.6-9.6-9.6s-9.7 4.3-9.5 9.6-.9 2.8-2.8 2.8h-21.5c-1.9 0-2.8-.6-2.8-1.5v-1.3c0-20.2 16.3-36.7 36.5-36.7 11.5 0 22.6 5.6 29.4 14.8 4 5.3 6.3 11.7 6.9 18.3.5 5.2.4 10.5-1.1 15.5s-5.6 9.4-8.7 14c-3.6 5.3-7.2 10.7-10.8 16.1-3.5 5.3-7 10.5-10.5 15.9-.9 1.3-2 1.9-3.5 1.9h-.6c-2.2 0-3.2-1.5-1.7-3.5 11.9-17.6 23.9-35.2 26.1-38.6 3.9-5.9 5.6-11.3 5.6-17.6 0-17.2-13.9-31.1-31.1-31.1s-27.8 10.9-30.4 25.4c-.4 1.9.7 3 2.6 3h10.8c1.7 0 2.4-.7 3-2.4 2.2-5.7 7.8-10 14.1-10 4.1 0 8.2 2.4 11.1 5.2s2.9 3.4 3.6 5.5.5 5 0 7.3c-.9 4-3.4 6.8-5.7 10l-3.9 5.3-11.6 15.7-12.3 16.6-7.8 10.6c-.2.3-.5.7-.7 1Z" fill="#ffffff" data-color="1"/>
        <path d="M573.6 65.6c-.4 2.6.9 2.4 2.8.7 8.5-7.2 18.2-9.8 27.1-9.8 25.6 0 41.7 21.3 41.7 41.7s-14.2 41.7-41.7 41.7-40.2-17.2-41.5-38.9l-.2-2.8c0-1.9.9-2.8 2.8-2.8h21c1.9 0 2.8.6 2.8 1.3v1.5c0 8.3 6.9 15.2 15.2 15.2s15.4-6.9 15.4-15.2-5.9-16-15.4-15.4c-1.8.1-3.7.3-5.5.7s-2.8 1.2-4.1 2-.3.2-.4.3c-.3.2-.6.5-1 .5h-1c-.9-.2-2.3-.4-2.8-1.4s.4-2 1-2.6c4.5-3.7 8.9-5.2 13.7-5.2 9.1 0 20.8 7.4 20.8 21s-9.3 20.8-20.8 20.8-17.8-6.5-20.2-15.6c-.6-1.7-1.5-2.4-3.2-2.4h-9.6c-1.9 0-3 1.1-2.6 3 2.6 17.2 17.2 31.7 35.6 30.4 15.9-1.1 18.7-3.7 25.6-10.6s10.6-15.9 10.6-25.6c0-18-14.1-36.2-36.2-36.2s-24.5 8-31.1 18c-.9 1.5-2 1.9-3.5 1.7l-.7-.2c-1.7-.4-2.4-1.5-2.2-3.2l8.5-65.6c.2-1.7 1.3-2.6 3-2.6h56c1.9 0 2.8.9 2.8 2.8v21c0 1.9-.9 2.8-2.8 2.8h-33c-1.7 0-2.8.9-3 2.6l-1.1 9.8c-.6 2.4-1.5 2.6-2.8 3-2 .6-3.2-.6-3-2.6l2-15.8c.2-1.7 1.3-2.6 3-2.6h32.3c1.9 0 2.8-.9 2.8-2.8v-9.8c0-1.9-.9-2.8-2.8-2.8h-45.4c-1.7 0-2.8.9-3 2.6l-5.9 46.5v.8Z" fill="#ffffff" data-color="1"/>
        <path d="M93.8 138.2V87.8H81V73.2h42.1v14.6h-12.7v50.4z" fill="#ffffff" data-color="1"/>
        <path d="m183 138.2.5-48.6-.2-.2-13.9 48.8h-11l-14-49.2.5 49.2h-15.3V73.3h21.3l12.9 42.7h.2l12.7-42.7h21.4v64.9h-15.3z" fill="#ffffff" data-color="1"/>
        <path d="m257 138.2-9.7-42h-.2l-9.7 42h-15l-16.8-64.9h16.9l8.7 42.2h.2l9.6-42.2h12.7l9.4 42.4h.2l8.9-42.4H289l-17.2 64.9z" fill="#ffffff" data-color="1"/>
        <path d="M27.7 87.2c0-8.3 6-14.5 14.1-14.5S56 78.8 56 86.4s-6.2 14.1-13.8 14.1-14.5-5.4-14.5-13.3m21.4-.6c0-4.2-3-7.9-7.3-7.9s-7.3 3.6-7.3 7.8 3 8 7.4 8 7.2-3.6 7.2-7.9" fill="#ffffff" data-color="1"/>
        <path d="M59.7 100V73.2h14.6v6h-8.1v4.6H74v6h-7.8V100h-6.6Z" fill="#ffffff" data-color="1"/>
        <path d="M60.3 69.1V47.5H42.6v21.6H28.8v-54h13.8v20.3h17.7V15.1h13.8v54z" fill="#ffffff" data-color="1"/>
        <path d="M81.6 43.4c0-16.7 12-29.3 28.5-29.3s28.5 12.2 28.5 27.7-12.4 28.4-27.9 28.4-29.1-10.8-29.1-26.8m43.2-1.2c0-8.5-6.1-16-14.7-16S95.4 33.4 95.4 42s6.1 16.1 14.9 16.1 14.5-7.2 14.5-15.8Z" fill="#ffffff" data-color="1"/>
        <path d="M151.5 69.1V27.2h-10.7V15.1h35v12.1h-10.6v41.9h-13.8z" fill="#ffffff" data-color="1"/>
        <path d="M181.4 69.1v-54h30v12.1h-16.8v8.4h16.3v12.1h-16.3V57h16.8v12.1z" fill="#ffffff" data-color="1"/>
        <path d="M220.3 69.1v-54h13.8V57h16v12.1z" fill="#ffffff" data-color="1"/>
        <path d="M276.7 30.9c-.6-3.9-2.2-5.3-4.9-5.3s-4.7 1.8-4.7 4.2 2.9 4.7 8.8 7.2c11.9 5.1 14.9 9.4 14.9 16.5 0 10.4-7.2 16.6-18.8 16.6s-19.5-6.1-19.5-17.7v-1.2h13.7c0 4.5 2.3 7.4 5.7 7.4s5.2-2.3 5.2-5.2c0-4.3-6-6.2-10.9-8.2-8.8-3.6-12.9-8.3-12.9-15.3 0-4.9 3.6-9.4 7.3-12.2s10.7-4.5 16.5-3.2c8.1 1.9 13.1 8 13.2 16.3h-13.7Z" fill="#ffffff" data-color="1"/>
        <g style="isolation:isolate">
            <path d="M668.3 108.7h4v12.1h15v-12.1h4V138h-4v-13.7h-15V138h-4z" fill="#ffffff" data-color="1"/>
            <path d="M721.8 112.9c1.9 2.6 2.9 5.9 2.9 9.9s-1.1 8-3.3 10.9q-3.9 5.1-11.1 5.1c-7.2 0-8-1.5-10.6-4.5-2.3-2.9-3.4-6.5-3.4-10.9s1-7.3 2.9-10.2c2.5-3.6 6.3-5.4 11.2-5.4s9 1.7 11.5 5Zm-3.5 18.6c1.6-2.5 2.3-5.4 2.3-8.6s-.9-6.2-2.7-8.3-4.3-3.2-7.4-3.2-5.5 1-7.4 3.1-2.9 5.1-2.9 9.2.8 6 2.5 8.2c1.6 2.2 4.3 3.3 8 3.3s6-1.3 7.6-3.8Z" fill="#ffffff" data-color="1"/>
            <path d="M750.7 108.7v3.5h-9.9V138h-4v-25.8h-9.9v-3.5h23.7Z" fill="#ffffff" data-color="1"/>
            <path d="M754.7 108.7h21.2v3.6h-17.4v8.9h16.1v3.4h-16.1v9.9h17.7v3.5h-21.5z" fill="#ffffff" data-color="1"/>
            <path d="M781.6 108.7h4v25.8h14.7v3.5h-18.6v-29.3Z" fill="#ffffff" data-color="1"/>
            <path d="M816.7 128.5c0 1.7.5 3 1.1 4 1.3 1.9 3.5 2.9 6.7 2.9s2.7-.2 3.9-.6c2.3-.8 3.4-2.3 3.4-4.4s-.5-2.7-1.4-3.4c-1-.7-2.5-1.2-4.6-1.7l-3.8-.9c-2.5-.6-4.3-1.2-5.3-1.9-1.8-1.2-2.7-3-2.7-5.5s.9-4.8 2.7-6.5 4.3-2.5 7.5-2.5 5.5.7 7.6 2.2 3.1 3.8 3.1 7.1h-3.7q-.3-2.4-1.2-3.6c-1.2-1.5-3.1-2.3-5.9-2.3s-3.9.5-4.8 1.5c-1 1-1.5 2.1-1.5 3.4s.6 2.5 1.7 3.1c.8.4 2.5 1 5.2 1.6l4 .9c1.9.5 3.4 1.1 4.4 1.9q2.7 2.1 2.7 6c0 3.9-1.2 5.6-3.4 7s-5 2.1-8 2.1-6.3-.9-8.3-2.8q-3-2.7-3-7.5h3.7Z" fill="#ffffff" data-color="1"/>
            <path d="M862.6 108.7v3.5h-9.9V138h-4v-25.8h-9.9v-3.5h23.7Z" fill="#ffffff" data-color="1"/>
            <path d="M871.7 108.7h4.5l10.6 29.3h-4.3l-3-8.8h-11.6l-3.2 8.8h-4.1l11-29.3Zm6.5 17.3-4.4-12.9-4.7 12.9h9.2Z" fill="#ffffff" data-color="1"/>
            <path d="M885.2 108.7h4.6l8.4 14.1 8.4-14.1h4.7l-11.1 17.5V138h-4v-11.8l-11.1-17.5Z" fill="#ffffff" data-color="1"/>
            <path d="M917.2 128.5c0 1.7.5 3 1.1 4 1.3 1.9 3.5 2.9 6.7 2.9s2.7-.2 3.9-.6c2.3-.8 3.4-2.3 3.4-4.4s-.5-2.7-1.4-3.4c-1-.7-2.5-1.2-4.6-1.7l-3.8-.9c-2.5-.6-4.3-1.2-5.3-1.9-1.8-1.2-2.7-3-2.7-5.5s.9-4.8 2.7-6.5 4.3-2.5 7.5-2.5 5.5.7 7.6 2.2 3.1 3.8 3.1 7.1h-3.7q-.3-2.4-1.2-3.6c-1.2-1.5-3.1-2.3-5.9-2.3s-3.9.5-4.8 1.5c-1 1-1.5 2.1-1.5 3.4s.6 2.5 1.7 3.1c.8.4 2.5 1 5.2 1.6l4 .9c1.9.5 3.4 1.1 4.4 1.9q2.7 2.1 2.7 6c0 3.9-1.1 5.6-3.4 7s-5 2.1-8 2.1-6.3-.9-8.3-2.8q-3-2.7-3-7.5h3.7Z" fill="#ffffff" data-color="1"/>
        </g>
        <g style="isolation:isolate">
            <path d="M670.6 11h11.5v84.1h-11.5z" fill="#ffffff" data-color="1"/>
            <path d="M760.2 17.1c5.8 5.6 9 12 9.7 19.1h-11.1c-1.2-5.4-3.7-9.7-7.4-12.9s-8.9-4.8-15.6-4.8-14.7 2.9-19.7 8.7-7.5 14.8-7.5 26.8 2.3 17.9 6.8 24 11.3 9.2 20.2 9.2 14.5-3.2 18.8-9.7c2.3-3.4 4-7.9 5.1-13.4h11.1c-1 8.9-4.2 16.3-9.7 22.3q-9.9 10.8-26.7 10.8c-16.8 0-17.8-3-24.3-8.9-8.6-7.8-13-19.9-13-36.3s3.2-22.6 9.7-30.5c7-8.6 16.7-13 29-13s18.7 2.8 24.5 8.4Z" fill="#ffffff" data-color="1"/>
            <path d="M854.7 23c5.6 7.4 8.4 17 8.4 28.6s-3.2 23-9.6 31.3c-7.5 9.8-18.2 14.7-32 14.7s-23.1-4.3-30.5-12.8c-6.6-8.2-9.9-18.7-9.9-31.3s2.8-21.1 8.5-29.2c7.3-10.4 18-15.6 32.2-15.6s25.9 4.8 33 14.3Zm-10.1 53.7c4.5-7.2 6.7-15.5 6.7-24.8S848.7 34 843.5 28s-12.2-9.1-21.2-9.1-15.8 3-21.3 9-8.2 14.8-8.2 26.5 2.4 17.2 7.1 23.6 12.4 9.6 22.9 9.6 17.3-3.6 21.8-10.8Z" fill="#ffffff" data-color="1"/>
            <path d="M876.6 11H890l42 68V11h10.9v84.1h-12.8l-42.6-67.9v67.9h-10.9z" fill="#ffffff" data-color="1"/>
            <path d="M963.9 11h11.5v84.1h-11.5z" fill="#ffffff" data-color="1"/>
            <path d="M1053.4 17.1c5.8 5.6 9 12 9.7 19.1H1052c-1.2-5.4-3.7-9.7-7.4-12.9s-8.9-4.8-15.6-4.8-14.7 2.9-19.7 8.7-7.5 14.8-7.5 26.8 2.3 17.9 6.8 24 11.3 9.2 20.2 9.2 14.5-3.2 18.8-9.7c2.3-3.4 4-7.9 5.1-13.4h11.1c-1 8.9-4.2 16.3-9.7 22.3q-9.9 10.8-26.7 10.8c-16.8 0-17.8-3-24.3-8.9-8.6-7.8-13-19.9-13-36.3s3.2-22.6 9.7-30.5c7-8.6 16.7-13 29-13s18.7 2.8 24.5 8.4Z" fill="#ffffff" data-color="1"/>
        </g>
    </g>
</svg>
